<mxfile host="app.diagrams.net" agent="Mozilla/5.0 (Macintosh; Intel Mac OS X 10_15_7) AppleWebKit/537.36 (KHTML, like Gecko) Chrome/136.0.0.0 Safari/537.36 Edg/136.0.0.0" version="27.0.3">
  <diagram name="第 1 页" id="Z0FvxLD0hqI7qlj6Cq4k">
    <mxGraphModel dx="1350" dy="670" grid="1" gridSize="10" guides="1" tooltips="1" connect="1" arrows="1" fold="1" page="1" pageScale="1" pageWidth="827" pageHeight="1169" math="0" shadow="0">
      <root>
        <mxCell id="0" />
        <mxCell id="1" parent="0" />
        <mxCell id="Ye4hKDb8vEAnaQrvqYou-1" value="sz-pt 精准测试" style="rounded=0;whiteSpace=wrap;html=1;" vertex="1" parent="1">
          <mxGeometry x="340" y="120" width="100" height="30" as="geometry" />
        </mxCell>
        <mxCell id="Ye4hKDb8vEAnaQrvqYou-2" value="" style="endArrow=none;dashed=1;html=1;dashPattern=1 3;strokeWidth=2;rounded=0;entryX=0.5;entryY=1;entryDx=0;entryDy=0;" edge="1" parent="1" target="Ye4hKDb8vEAnaQrvqYou-1">
          <mxGeometry width="50" height="50" relative="1" as="geometry">
            <mxPoint x="390" y="600" as="sourcePoint" />
            <mxPoint x="590" y="310" as="targetPoint" />
          </mxGeometry>
        </mxCell>
        <mxCell id="Ye4hKDb8vEAnaQrvqYou-3" value="被测服务" style="rounded=0;whiteSpace=wrap;html=1;" vertex="1" parent="1">
          <mxGeometry x="580" y="120" width="110" height="30" as="geometry" />
        </mxCell>
        <mxCell id="Ye4hKDb8vEAnaQrvqYou-9" value="" style="endArrow=classic;html=1;rounded=0;entryX=0;entryY=0.071;entryDx=0;entryDy=0;entryPerimeter=0;" edge="1" parent="1">
          <mxGeometry width="50" height="50" relative="1" as="geometry">
            <mxPoint x="390" y="220" as="sourcePoint" />
            <mxPoint x="630" y="220" as="targetPoint" />
          </mxGeometry>
        </mxCell>
        <mxCell id="Ye4hKDb8vEAnaQrvqYou-10" value="发送 case1_XXX用例测试请求" style="edgeLabel;html=1;align=center;verticalAlign=middle;resizable=0;points=[];" vertex="1" connectable="0" parent="Ye4hKDb8vEAnaQrvqYou-9">
          <mxGeometry x="-0.2083" y="-2" relative="1" as="geometry">
            <mxPoint as="offset" />
          </mxGeometry>
        </mxCell>
        <mxCell id="Ye4hKDb8vEAnaQrvqYou-11" value="" style="endArrow=classic;html=1;rounded=0;entryX=0;entryY=0.071;entryDx=0;entryDy=0;entryPerimeter=0;" edge="1" parent="1">
          <mxGeometry width="50" height="50" relative="1" as="geometry">
            <mxPoint x="390" y="240" as="sourcePoint" />
            <mxPoint x="630" y="240" as="targetPoint" />
          </mxGeometry>
        </mxCell>
        <mxCell id="Ye4hKDb8vEAnaQrvqYou-12" value="发送 case3_XXX用例测试请求" style="edgeLabel;html=1;align=center;verticalAlign=middle;resizable=0;points=[];" vertex="1" connectable="0" parent="Ye4hKDb8vEAnaQrvqYou-11">
          <mxGeometry x="-0.2083" y="-2" relative="1" as="geometry">
            <mxPoint as="offset" />
          </mxGeometry>
        </mxCell>
        <mxCell id="Ye4hKDb8vEAnaQrvqYou-14" value="" style="endArrow=classic;html=1;rounded=0;entryX=0;entryY=0;entryDx=0;entryDy=0;" edge="1" parent="1">
          <mxGeometry width="50" height="50" relative="1" as="geometry">
            <mxPoint x="390" y="320" as="sourcePoint" />
            <mxPoint x="630" y="320" as="targetPoint" />
          </mxGeometry>
        </mxCell>
        <mxCell id="Ye4hKDb8vEAnaQrvqYou-15" value="发送用例 case1测试结束请求" style="edgeLabel;html=1;align=center;verticalAlign=middle;resizable=0;points=[];" vertex="1" connectable="0" parent="Ye4hKDb8vEAnaQrvqYou-14">
          <mxGeometry x="-0.1043" y="1" relative="1" as="geometry">
            <mxPoint as="offset" />
          </mxGeometry>
        </mxCell>
        <mxCell id="Ye4hKDb8vEAnaQrvqYou-18" value="" style="endArrow=classic;html=1;rounded=0;exitX=0;exitY=1;exitDx=0;exitDy=0;" edge="1" parent="1" source="Ye4hKDb8vEAnaQrvqYou-6">
          <mxGeometry width="50" height="50" relative="1" as="geometry">
            <mxPoint x="620" y="379" as="sourcePoint" />
            <mxPoint x="390" y="379" as="targetPoint" />
          </mxGeometry>
        </mxCell>
        <mxCell id="Ye4hKDb8vEAnaQrvqYou-36" value="&amp;nbsp;HTTP 调用接口 上传 exec 传参 case1" style="edgeLabel;html=1;align=center;verticalAlign=middle;resizable=0;points=[];" vertex="1" connectable="0" parent="Ye4hKDb8vEAnaQrvqYou-18">
          <mxGeometry relative="1" as="geometry">
            <mxPoint as="offset" />
          </mxGeometry>
        </mxCell>
        <mxCell id="Ye4hKDb8vEAnaQrvqYou-20" value="&lt;span style=&quot;color: rgba(0, 0, 0, 0); font-family: monospace; font-size: 0px; text-align: start; background-color: rgb(236, 236, 236);&quot;&gt;%3CmxGraphModel%3E%3Croot%3E%3CmxCell%20id%3D%220%22%2F%3E%3CmxCell%20id%3D%221%22%20parent%3D%220%22%2F%3E%3CmxCell%20id%3D%222%22%20value%3D%22%22%20style%3D%22endArrow%3Dclassic%3Bhtml%3D1%3Brounded%3D0%3Bcurved%3D1%3B%22%20edge%3D%221%22%20parent%3D%221%22%3E%3CmxGeometry%20width%3D%2250%22%20height%3D%2250%22%20relative%3D%221%22%20as%3D%22geometry%22%3E%3CmxPoint%20x%3D%22500%22%20y%3D%22340%22%20as%3D%22sourcePoint%22%2F%3E%3CmxPoint%20x%3D%22500%22%20y%3D%22350%22%20as%3D%22targetPoint%22%2F%3E%3CArray%20as%3D%22points%22%3E%3CmxPoint%20x%3D%22550%22%20y%3D%22340%22%2F%3E%3CmxPoint%20x%3D%22530%22%20y%3D%22370%22%2F%3E%3C%2FArray%3E%3C%2FmxGeometry%3E%3C%2FmxCell%3E%3C%2Froot%3E%3C%2FmxGraphModel%3E&lt;/span&gt;" style="endArrow=classic;html=1;rounded=0;curved=1;" edge="1" parent="1">
          <mxGeometry x="-0.3449" y="50" width="50" height="50" relative="1" as="geometry">
            <mxPoint x="400" y="410" as="sourcePoint" />
            <mxPoint x="400" y="420" as="targetPoint" />
            <Array as="points">
              <mxPoint x="450" y="410" />
              <mxPoint x="430" y="440" />
            </Array>
            <mxPoint as="offset" />
          </mxGeometry>
        </mxCell>
        <mxCell id="Ye4hKDb8vEAnaQrvqYou-21" value="执行解析 exec 逻辑&lt;br&gt;基于 class 文件构建指令树&lt;br&gt;解析路径&lt;br&gt;路径字节码作 hash" style="text;html=1;align=center;verticalAlign=middle;whiteSpace=wrap;rounded=0;" vertex="1" parent="1">
          <mxGeometry x="384" y="440" width="186" height="40" as="geometry" />
        </mxCell>
        <mxCell id="Ye4hKDb8vEAnaQrvqYou-22" value="用例预分析库 neo4j" style="rounded=0;whiteSpace=wrap;html=1;" vertex="1" parent="1">
          <mxGeometry x="790" y="120" width="110" height="30" as="geometry" />
        </mxCell>
        <mxCell id="Ye4hKDb8vEAnaQrvqYou-29" value="" style="endArrow=classic;html=1;rounded=0;entryX=0;entryY=0.071;entryDx=0;entryDy=0;entryPerimeter=0;" edge="1" parent="1">
          <mxGeometry width="50" height="50" relative="1" as="geometry">
            <mxPoint x="390" y="200" as="sourcePoint" />
            <mxPoint x="630" y="200" as="targetPoint" />
          </mxGeometry>
        </mxCell>
        <mxCell id="Ye4hKDb8vEAnaQrvqYou-30" value="发送 case1_XXX用例测试请求" style="edgeLabel;html=1;align=center;verticalAlign=middle;resizable=0;points=[];" vertex="1" connectable="0" parent="Ye4hKDb8vEAnaQrvqYou-29">
          <mxGeometry x="-0.2083" y="-2" relative="1" as="geometry">
            <mxPoint as="offset" />
          </mxGeometry>
        </mxCell>
        <mxCell id="Ye4hKDb8vEAnaQrvqYou-32" value="" style="endArrow=classic;html=1;rounded=0;entryX=0;entryY=0.071;entryDx=0;entryDy=0;entryPerimeter=0;" edge="1" parent="1">
          <mxGeometry width="50" height="50" relative="1" as="geometry">
            <mxPoint x="390" y="259.5" as="sourcePoint" />
            <mxPoint x="630" y="259.5" as="targetPoint" />
          </mxGeometry>
        </mxCell>
        <mxCell id="Ye4hKDb8vEAnaQrvqYou-33" value="发送 case2_XXX用例测试请求" style="edgeLabel;html=1;align=center;verticalAlign=middle;resizable=0;points=[];" vertex="1" connectable="0" parent="Ye4hKDb8vEAnaQrvqYou-32">
          <mxGeometry x="-0.2083" y="-2" relative="1" as="geometry">
            <mxPoint as="offset" />
          </mxGeometry>
        </mxCell>
        <mxCell id="Ye4hKDb8vEAnaQrvqYou-34" value="" style="endArrow=classic;html=1;rounded=0;entryX=0;entryY=0.071;entryDx=0;entryDy=0;entryPerimeter=0;" edge="1" parent="1">
          <mxGeometry width="50" height="50" relative="1" as="geometry">
            <mxPoint x="390" y="280" as="sourcePoint" />
            <mxPoint x="630" y="280" as="targetPoint" />
          </mxGeometry>
        </mxCell>
        <mxCell id="Ye4hKDb8vEAnaQrvqYou-35" value="发送 case1_XXX用例测试请求" style="edgeLabel;html=1;align=center;verticalAlign=middle;resizable=0;points=[];" vertex="1" connectable="0" parent="Ye4hKDb8vEAnaQrvqYou-34">
          <mxGeometry x="-0.2083" y="-2" relative="1" as="geometry">
            <mxPoint as="offset" />
          </mxGeometry>
        </mxCell>
        <mxCell id="Ye4hKDb8vEAnaQrvqYou-38" value="" style="endArrow=classic;html=1;rounded=0;entryX=0;entryY=0.25;entryDx=0;entryDy=0;" edge="1" parent="1" target="Ye4hKDb8vEAnaQrvqYou-43">
          <mxGeometry width="50" height="50" relative="1" as="geometry">
            <mxPoint x="390" y="510" as="sourcePoint" />
            <mxPoint x="830" y="510" as="targetPoint" />
          </mxGeometry>
        </mxCell>
        <mxCell id="Ye4hKDb8vEAnaQrvqYou-42" value="将 case1_xxx 一系列用例解析为 case1 的用例入库" style="edgeLabel;html=1;align=center;verticalAlign=middle;resizable=0;points=[];" vertex="1" connectable="0" parent="Ye4hKDb8vEAnaQrvqYou-38">
          <mxGeometry x="-0.1907" y="-4" relative="1" as="geometry">
            <mxPoint as="offset" />
          </mxGeometry>
        </mxCell>
        <mxCell id="Ye4hKDb8vEAnaQrvqYou-40" value="" style="endArrow=none;dashed=1;html=1;dashPattern=1 3;strokeWidth=2;rounded=0;entryX=0.5;entryY=1;entryDx=0;entryDy=0;" edge="1" parent="1" source="Ye4hKDb8vEAnaQrvqYou-43">
          <mxGeometry width="50" height="50" relative="1" as="geometry">
            <mxPoint x="844.5" y="560" as="sourcePoint" />
            <mxPoint x="844.5" y="150" as="targetPoint" />
          </mxGeometry>
        </mxCell>
        <mxCell id="Ye4hKDb8vEAnaQrvqYou-41" value="" style="endArrow=none;dashed=1;html=1;dashPattern=1 3;strokeWidth=2;rounded=0;entryX=0.5;entryY=1;entryDx=0;entryDy=0;" edge="1" parent="1">
          <mxGeometry width="50" height="50" relative="1" as="geometry">
            <mxPoint x="635" y="600" as="sourcePoint" />
            <mxPoint x="634.5" y="150" as="targetPoint" />
          </mxGeometry>
        </mxCell>
        <mxCell id="Ye4hKDb8vEAnaQrvqYou-6" value="" style="rounded=0;whiteSpace=wrap;html=1;" vertex="1" parent="1">
          <mxGeometry x="630" y="310" width="10" height="70" as="geometry" />
        </mxCell>
        <mxCell id="Ye4hKDb8vEAnaQrvqYou-44" value="" style="endArrow=none;dashed=1;html=1;dashPattern=1 3;strokeWidth=2;rounded=0;entryX=0.5;entryY=1;entryDx=0;entryDy=0;" edge="1" parent="1" target="Ye4hKDb8vEAnaQrvqYou-43">
          <mxGeometry width="50" height="50" relative="1" as="geometry">
            <mxPoint x="845" y="600" as="sourcePoint" />
            <mxPoint x="844.5" y="150" as="targetPoint" />
          </mxGeometry>
        </mxCell>
        <mxCell id="Ye4hKDb8vEAnaQrvqYou-43" value="" style="rounded=0;whiteSpace=wrap;html=1;" vertex="1" parent="1">
          <mxGeometry x="840" y="500" width="10" height="40" as="geometry" />
        </mxCell>
        <mxCell id="Ye4hKDb8vEAnaQrvqYou-45" value="" style="endArrow=classic;html=1;rounded=0;exitX=0;exitY=1;exitDx=0;exitDy=0;" edge="1" parent="1" source="Ye4hKDb8vEAnaQrvqYou-43">
          <mxGeometry width="50" height="50" relative="1" as="geometry">
            <mxPoint x="830" y="540" as="sourcePoint" />
            <mxPoint x="390" y="540" as="targetPoint" />
          </mxGeometry>
        </mxCell>
        <mxCell id="Ye4hKDb8vEAnaQrvqYou-46" value="入库成功 返回" style="edgeLabel;html=1;align=center;verticalAlign=middle;resizable=0;points=[];" vertex="1" connectable="0" parent="Ye4hKDb8vEAnaQrvqYou-45">
          <mxGeometry x="-0.7111" y="1" relative="1" as="geometry">
            <mxPoint as="offset" />
          </mxGeometry>
        </mxCell>
        <mxCell id="Ye4hKDb8vEAnaQrvqYou-47" value="&lt;font style=&quot;font-size: 19px;&quot;&gt;用例预分析过程&lt;/font&gt;" style="text;html=1;align=center;verticalAlign=middle;whiteSpace=wrap;rounded=0;" vertex="1" parent="1">
          <mxGeometry x="550" y="50" width="150" height="20" as="geometry" />
        </mxCell>
      </root>
    </mxGraphModel>
  </diagram>
</mxfile>
